<svg xmlns="http://www.w3.org/2000/svg" width="24" height="24" fill="none" viewBox="0 0 24 24"><path fill="#343A40" fill-rule="evenodd" d="M1.25 6C1.25 4.48122 2.48122 3.25 4 3.25H14C15.5188 3.25 16.75 4.48122 16.75 6V18C16.75 19.5188 15.5188 20.75 14 20.75H4C2.48122 20.75 1.25 19.5188 1.25 18V6ZM4 4.75C3.30964 4.75 2.75 5.30964 2.75 6V18C2.75 18.6904 3.30964 19.25 4 19.25H14C14.6904 19.25 15.25 18.6904 15.25 18V6C15.25 5.30964 14.6904 4.75 14 4.75H4Z" clip-rule="evenodd"/><path fill="#FFC107" fill-rule="evenodd" d="M7.5 13.25C7.08579 13.25 6.75 13.5858 6.75 14C6.75 14.4142 7.08579 14.75 7.5 14.75C7.91421 14.75 8.25 14.4142 8.25 14C8.25 13.5858 7.91421 13.25 7.5 13.25ZM5.25 14C5.25 12.7574 6.25736 11.75 7.5 11.75C8.74264 11.75 9.75 12.7574 9.75 14C9.75 15.2426 8.74264 16.25 7.5 16.25C6.25736 16.25 5.25 15.2426 5.25 14Z" clip-rule="evenodd"/><path fill="#FFC107" fill-rule="evenodd" d="M8.63048 8.34735C8.86561 8.21422 9.15417 8.21786 9.38587 8.35688L11.8859 9.85688C12.2411 10.07 12.3562 10.5307 12.1431 10.8859C11.93 11.2411 11.4693 11.3562 11.1141 11.1431L9.75 10.3246V14C9.75 14.4142 9.41421 14.75 9 14.75C8.58579 14.75 8.25 14.4142 8.25 14V9C8.25 8.7298 8.39534 8.48048 8.63048 8.34735Z" clip-rule="evenodd"/><path fill="#343A40" fill-rule="evenodd" d="M15.25 6C15.25 5.58579 15.5858 5.25 16 5.25C19.7279 5.25 22.75 8.27208 22.75 12C22.75 15.7279 19.7279 18.75 16 18.75C15.5858 18.75 15.25 18.4142 15.25 18C15.25 17.5858 15.5858 17.25 16 17.25C18.8995 17.25 21.25 14.8995 21.25 12C21.25 9.10051 18.8995 6.75 16 6.75C15.5858 6.75 15.25 6.41421 15.25 6Z" clip-rule="evenodd"/></svg>